<svg xmlns="http://www.w3.org/2000/svg" xmlns:xlink="http://www.w3.org/1999/xlink" viewBox="0 0 221.77 221.77"><defs><style>.cls-1{fill:url(#Degradado_sin_nombre_17);}.cls-2{fill:#f3f8fc;}</style><linearGradient id="Degradado_sin_nombre_17" x1="32.48" y1="189.3" x2="189.3" y2="32.48" gradientUnits="userSpaceOnUse"><stop offset="0" stop-color="#7b4a91"/><stop offset="1" stop-color="#9e5597"/></linearGradient></defs><title>Recurso 7</title><g id="Capa_2" data-name="Capa 2"><g id="Capa_3" data-name="Capa 3"><circle class="cls-1" cx="110.89" cy="110.89" r="110.89"/><path class="cls-2" d="M88.07,101.07,57.55,154.79a8,8,0,0,0,7,12H83.4a8,8,0,0,0,7-4.06l11.85-20.87a16,16,0,0,0,0-15.84L88.07,101.07Z"/><path class="cls-2" d="M96.36,44H77.48a8,8,0,0,0-7,12l25.9,45.6a16.06,16.06,0,0,0,14,8.12h28l-35-61.64A8,8,0,0,0,96.36,44Z"/><path class="cls-2" d="M164.23,154.78l-16.84-29.91a16,16,0,0,0-14-8.17H105.47l25.88,46a8,8,0,0,0,7,4.09h18.92A8,8,0,0,0,164.23,154.78Z"/><path class="cls-2" d="M111,140.78l-10.67,18.48A12.33,12.33,0,0,0,111,177.75h0a12.33,12.33,0,0,0,10.67-18.49Z"/></g></g></svg>